<svg width="10" height="18" viewBox="0 0 10 18" fill="none" xmlns="http://www.w3.org/2000/svg">
<path d="M0.969375 9.53064L8.46937 17.0306C8.57427 17.1356 8.70796 17.2072 8.85352 17.2362C8.99908 17.2651 9.14998 17.2503 9.28709 17.1935C9.42421 17.1367 9.54139 17.0404 9.62379 16.917C9.70619 16.7936 9.75012 16.6484 9.75 16.5V1.50001C9.75012 1.35159 9.70619 1.20647 9.62379 1.08302C9.54139 0.959579 9.42421 0.863358 9.28709 0.806544C9.14998 0.74973 8.99908 0.734876 8.85352 0.763864C8.70796 0.792852 8.57427 0.864377 8.46937 0.969386L0.969375 8.46939C0.899642 8.53904 0.844323 8.62176 0.80658 8.71281C0.768836 8.80385 0.749411 8.90145 0.749411 9.00001C0.749411 9.09857 0.768836 9.19617 0.80658 9.28722C0.844323 9.37827 0.899642 9.46098 0.969375 9.53064Z" fill="white"/>
</svg>
