<svg width="22" height="12" viewBox="0 0 22 12" fill="none" xmlns="http://www.w3.org/2000/svg">
<path d="M21.7083 10.2933L11.7083 0.293286C11.6154 0.20031 11.5051 0.126551 11.3837 0.0762272C11.2623 0.0259029 11.1322 0 11.0008 0C10.8694 0 10.7392 0.0259029 10.6178 0.0762272C10.4964 0.126551 10.3862 0.20031 10.2933 0.293286L0.293288 10.2933C0.153276 10.4331 0.0579087 10.6114 0.0192583 10.8055C-0.0193921 10.9996 0.000412494 11.2008 0.076165 11.3836C0.151917 11.5664 0.280212 11.7226 0.444805 11.8325C0.609399 11.9424 0.802892 12.0009 1.00079 12.0008H21.0008C21.1987 12.0009 21.3922 11.9424 21.5568 11.8325C21.7214 11.7226 21.8497 11.5664 21.9254 11.3836C22.0012 11.2008 22.021 10.9996 21.9823 10.8055C21.9437 10.6114 21.8483 10.4331 21.7083 10.2933Z" fill="#1F2730" style="mix-blend-mode:difference"/>
</svg>
