<svg width="10" height="18" viewBox="0 0 10 18" fill="none" xmlns="http://www.w3.org/2000/svg">
<path d="M9.03063 9.53064L1.53063 17.0306C1.42573 17.1356 1.29204 17.2072 1.14648 17.2362C1.00092 17.2651 0.850025 17.2503 0.712907 17.1935C0.57579 17.1367 0.458613 17.0404 0.37621 16.917C0.293807 16.7936 0.249883 16.6484 0.25 16.5V1.50001C0.249883 1.35159 0.293807 1.20647 0.37621 1.08302C0.458613 0.959579 0.57579 0.863358 0.712907 0.806544C0.850025 0.74973 1.00092 0.734876 1.14648 0.763864C1.29204 0.792852 1.42573 0.864377 1.53063 0.969386L9.03063 8.46939C9.10036 8.53904 9.15568 8.62176 9.19342 8.71281C9.23116 8.80385 9.25059 8.90145 9.25059 9.00001C9.25059 9.09857 9.23116 9.19617 9.19342 9.28722C9.15568 9.37827 9.10036 9.46098 9.03063 9.53064Z" fill="white"/>
</svg>
