<svg width="13" height="16" viewBox="0 0 13 16" fill="none" xmlns="http://www.w3.org/2000/svg">
<path d="M0.173294 1.01182L6.08196 6.93758C6.13684 6.99267 6.202 7.03638 6.27373 7.0662C6.34546 7.09602 6.42235 7.11137 6.5 7.11137C6.57765 7.11137 6.65454 7.09602 6.72627 7.0662C6.798 7.03638 6.86316 6.99267 6.91804 6.93758L12.8267 1.01182C12.9094 0.928949 12.9658 0.823319 12.9886 0.708309C13.0115 0.593299 12.9998 0.474081 12.955 0.365745C12.9102 0.257408 12.8344 0.164825 12.7372 0.0997181C12.6399 0.0346114 12.5256 -9.14045e-05 12.4087 8.71407e-07L0.591333 -1.61698e-07C0.474403 -9.2458e-05 0.360074 0.0346104 0.262821 0.099717C0.165568 0.164824 0.0897645 0.257407 0.0450048 0.365743C0.000245203 0.47408 -0.0114573 0.593298 0.01138 0.708308C0.0342172 0.823318 0.0905664 0.928947 0.173294 1.01182Z" fill="#1F2730" style="mix-blend-mode:difference"/>
<path d="M0.173294 9.90045L6.08196 15.8262C6.13684 15.8813 6.202 15.925 6.27373 15.9548C6.34546 15.9847 6.42235 16 6.5 16C6.57765 16 6.65454 15.9847 6.72627 15.9548C6.798 15.925 6.86316 15.8813 6.91804 15.8262L12.8267 9.90045C12.9094 9.81758 12.9658 9.71195 12.9886 9.59694C13.0115 9.48193 12.9998 9.36271 12.955 9.25437C12.9102 9.14604 12.8344 9.05346 12.7372 8.98835C12.6399 8.92324 12.5256 8.88854 12.4087 8.88863L0.591332 8.88863C0.474402 8.88854 0.360074 8.92324 0.262821 8.98835C0.165568 9.05345 0.0897637 9.14604 0.0450041 9.25437C0.000244426 9.36271 -0.011458 9.48193 0.0113792 9.59694C0.0342164 9.71195 0.0905656 9.81758 0.173294 9.90045Z" fill="#1F2730" style="mix-blend-mode:difference"/>
</svg>
