<svg width="13" height="16" viewBox="0 0 13 16" fill="none" xmlns="http://www.w3.org/2000/svg">
<path d="M12.8267 14.9882L6.91804 9.06242C6.86316 9.00733 6.798 8.96362 6.72627 8.9338C6.65454 8.90398 6.57765 8.88863 6.5 8.88863C6.42235 8.88863 6.34546 8.90398 6.27373 8.9338C6.202 8.96362 6.13684 9.00733 6.08196 9.06242L0.173294 14.9882C0.0905658 15.0711 0.0342163 15.1767 0.0113791 15.2917C-0.0114582 15.4067 0.000243729 15.5259 0.0450034 15.6343C0.089763 15.7426 0.165568 15.8352 0.262821 15.9003C0.360074 15.9654 0.474402 16.0001 0.591332 16H12.4087C12.5256 16.0001 12.6399 15.9654 12.7372 15.9003C12.8344 15.8352 12.9102 15.7426 12.955 15.6343C12.9998 15.5259 13.0115 15.4067 12.9886 15.2917C12.9658 15.1767 12.9094 15.0711 12.8267 14.9882Z" fill="#1F2730" style="mix-blend-mode:difference"/>
<path d="M12.8267 6.09955L6.91804 0.173794C6.86316 0.118699 6.798 0.0749913 6.72627 0.0451703C6.65454 0.0153494 6.57765 0 6.5 0C6.42235 0 6.34546 0.0153494 6.27373 0.0451703C6.202 0.0749913 6.13684 0.118699 6.08196 0.173794L0.173294 6.09955C0.0905658 6.18242 0.0342163 6.28805 0.0113791 6.40306C-0.0114582 6.51807 0.000243729 6.63729 0.0450034 6.74563C0.089763 6.85396 0.165568 6.94654 0.262821 7.01165C0.360074 7.07676 0.474402 7.11146 0.591332 7.11137H12.4087C12.5256 7.11146 12.6399 7.07676 12.7372 7.01165C12.8344 6.94654 12.9102 6.85396 12.955 6.74563C12.9998 6.63729 13.0115 6.51807 12.9886 6.40306C12.9658 6.28805 12.9094 6.18242 12.8267 6.09955Z" fill="#1F2730" style="mix-blend-mode:difference"/>
</svg>
