<svg width="22" height="12" viewBox="0 0 22 12" fill="none" xmlns="http://www.w3.org/2000/svg">
<path d="M0.293666 1.70744L10.2937 11.7074C10.3865 11.8004 10.4968 11.8742 10.6182 11.9245C10.7396 11.9748 10.8698 12.0007 11.0012 12.0007C11.1326 12.0007 11.2627 11.9748 11.3841 11.9245C11.5055 11.8742 11.6158 11.8004 11.7087 11.7074L21.7087 1.70745C21.8487 1.56759 21.944 1.38934 21.9827 1.19525C22.0213 1.00117 22.0015 0.799979 21.9258 0.617156C21.85 0.434333 21.7217 0.278096 21.5571 0.168225C21.3926 0.0583543 21.1991 -0.000209879 21.0012 -5.44469e-05L1.00117 -5.61954e-05C0.803271 -0.000211662 0.609778 0.0583525 0.445184 0.168223C0.280589 0.278094 0.152297 0.434331 0.0765448 0.617154C0.000792529 0.799977 -0.0190134 1.00117 0.0196371 1.19525C0.0582876 1.38934 0.153655 1.56759 0.293666 1.70744Z" fill="#1F2730" style="mix-blend-mode:difference"/>
</svg>
