<svg width="71" height="147" viewBox="0 0 71 147" fill="none" xmlns="http://www.w3.org/2000/svg">
<path d="M35.3359 0.266357C30.8026 0.266357 26.853 0.443188 23.5953 0.792004C23.5947 0.792004 23.594 0.792158 23.5934 0.792158C23.5901 0.792543 23.5863 0.792697 23.583 0.793081C22.9611 0.815849 22.3501 1.03729 21.7455 1.41818L21.7444 1.4121C19.8554 1.76284 17.7706 2.98243 16.1658 4.00634C14.1303 5.30346 12.4271 6.58458 11.1041 7.81402C9.48209 9.32035 8.36219 10.7922 7.70871 11.7608C7.07607 12.6987 6.61318 13.5778 6.27314 14.4447L6.2676 14.4411C4.96556 16.5197 4.27392 18.0962 3.87888 19.8819C3.53922 21.4128 3.426 22.9819 3.32262 25.5196C3.21432 28.195 3.13187 31.3849 3.09003 34.5022C3.04695 37.8196 3.04457 41.4913 3.52214 46.7573C3.48261 47.4156 3.44584 48.144 3.40754 49.0179C3.33416 50.6956 3.24732 53.0347 3.1521 55.9657C2.72498 56.2706 2.32401 56.6046 1.97997 56.995C1.37571 57.6817 0.867446 58.5432 0.617622 59.2988C0.376412 60.0348 0.382566 60.6599 0.429332 61.0587C0.442869 61.1707 0.46379 61.3405 0.607777 61.4353C0.791148 61.5571 1.09389 61.5214 1.95535 61.274C2.24402 61.1913 2.60414 61.0817 2.9978 60.9571C2.93404 63.2565 2.86351 66.3271 2.86112 70.0388V70.2923C2.86112 75.6137 2.99526 81.4865 3.07649 84.541L3.08756 84.9803C3.0458 85.316 3.0238 85.6779 3.01372 85.9858C2.98911 86.6639 3.01126 87.3383 3.08141 88.0311C3.11479 88.3669 3.15956 88.6929 3.21071 88.9984C3.30916 91.8486 3.41984 94.3112 3.55891 96.7504C3.66352 98.6047 3.7862 100.474 3.91572 102.211C3.47392 114.071 3.56998 118.612 3.63152 121.616L3.65367 122.717C3.70536 125.41 3.73982 127.188 4.20009 129.127C4.71327 131.275 5.71503 133.537 7.09706 135.669C8.61201 138.006 10.4568 139.965 12.4308 141.332C14.5537 142.803 16.9879 143.715 19.9895 144.629C23.156 145.594 26.7126 146.461 35.3359 146.461C43.9591 146.461 47.5157 145.594 50.6822 144.629C53.6838 143.715 56.1181 142.803 58.241 141.332C60.215 139.965 62.0597 138.006 63.5747 135.669C64.9567 133.537 65.9585 131.275 66.4717 129.127C66.9319 127.188 66.9664 125.41 67.0181 122.717L67.0402 121.616C67.0648 120.436 67.0944 119.019 67.0944 117.013C67.0944 113.915 67.0241 109.413 66.7561 102.213C66.8858 100.478 67.0089 98.6078 67.1141 96.7504C67.2531 94.2952 67.3627 91.8314 67.4611 88.9984C67.5123 88.6927 67.5569 88.3664 67.5903 88.0299C67.642 87.5142 67.6666 87.0097 67.6666 86.5026C67.6666 86.3303 67.6642 86.158 67.658 85.9858C67.6479 85.678 67.6249 85.3161 67.5832 84.9803L67.5952 84.541C67.6765 81.4865 67.8106 75.6137 67.8106 70.2923C67.8106 70.2074 67.8106 70.1225 67.8106 70.0388C67.8082 66.3271 67.7377 63.2565 67.6739 60.9571C68.0676 61.0817 68.4277 61.1913 68.7164 61.274C69.5779 61.5214 69.8806 61.5571 70.064 61.4353C70.208 61.3405 70.2289 61.1707 70.2424 61.0574C70.2572 60.9319 70.2682 60.7818 70.2682 60.6132C70.2682 60.2514 70.219 59.8009 70.0541 59.2988C69.8043 58.5432 69.296 57.6817 68.6918 56.995C68.3479 56.6047 67.9469 56.2708 67.5196 55.9659C67.4244 53.0349 67.3376 50.6956 67.2642 49.0179C67.2259 48.1441 67.1892 47.4157 67.1497 46.7574C67.5154 42.7239 67.6002 39.6248 67.6002 36.9057C67.6002 36.075 67.5916 35.2787 67.5817 34.5022C67.5399 31.3849 67.4574 28.195 67.3491 25.5196C67.2457 22.9819 67.1325 21.4128 66.7929 19.8819C66.3978 18.0962 65.7062 16.5197 64.4041 14.4411L64.3986 14.4447C64.0585 13.5778 63.5957 12.6987 62.963 11.7608C62.3096 10.7922 61.1896 9.32035 59.5676 7.81402C58.2447 6.58458 56.5414 5.30346 54.5059 4.00634C52.9011 2.98243 50.8164 1.76284 48.9273 1.4121L48.9262 1.41818C48.3217 1.03729 47.7106 0.816541 47.0886 0.793774C47.0853 0.793389 47.0816 0.792543 47.0783 0.792158C47.0777 0.792158 47.077 0.79185 47.0764 0.79185C43.8188 0.443034 39.8691 0.266357 35.3359 0.266357ZM13.9334 9.87538C13.6823 10.1597 13.4202 10.4513 13.1384 10.7639C12.5551 11.4137 11.893 12.1484 11.0943 13.08C10.2189 14.1003 9.24273 15.2992 7.86254 17.3561C8.38341 14.0089 9.25296 12.2821 10.4703 10.6827C11.7193 9.04237 13.4258 7.41067 17.425 4.92688C17.183 5.30723 16.9518 5.67797 16.7418 6.01971C16.5449 6.34214 16.3566 6.64735 16.1769 6.92917C15.3179 8.27921 14.625 9.09267 13.9334 9.87538ZM58.4576 50.2645C58.5449 50.8835 58.465 51.4447 58.2816 52.3333C58.1142 53.1418 57.8693 54.1805 57.5592 55.4961L57.3475 56.3957C57.0337 57.7285 56.678 59.2385 56.3876 60.3867C56.0972 61.5374 55.8387 62.4518 55.6209 63.1053C55.4535 63.6049 55.3255 63.9126 55.1606 64.0061C55.0191 64.0873 54.7853 64.0467 54.5145 63.9987L54.4481 63.9877C54.2807 63.9581 54.0986 63.9298 53.8106 63.8855C53.5263 63.8412 53.1362 63.7809 52.5504 63.6874L52.4002 63.6628C51.2397 63.4757 49.2977 63.1643 46.5854 62.8653C44.1942 62.6032 40.4271 62.2536 35.3359 62.2536C30.2446 62.2536 26.4776 62.6032 24.0864 62.8653C21.374 63.1643 19.432 63.4757 18.2715 63.6628L18.1213 63.6874C17.5356 63.7809 17.1454 63.8412 16.8611 63.8855C16.5732 63.9298 16.391 63.9581 16.2237 63.9877L16.1572 63.9987C15.8865 64.0467 15.6526 64.0873 15.5111 64.0061C15.3462 63.9126 15.2182 63.6049 15.0508 63.104C14.833 62.4518 14.5746 61.5374 14.2841 60.3867C13.9937 59.2385 13.638 57.7285 13.3242 56.3957L13.1126 55.4961C12.8024 54.1805 12.5575 53.1418 12.3902 52.3333C12.208 51.4447 12.1292 50.8799 12.2142 50.2645C12.2892 49.707 12.4997 49.0277 13.4817 48.2179C14.3986 47.4648 16.0317 46.5615 17.7423 45.8587C19.3471 45.1991 20.9026 44.7708 23.6876 44.2207C26.5354 43.6583 30.4317 43.0122 35.3359 43.0122C40.2401 43.0122 44.1363 43.6583 46.9841 44.2207C49.7691 44.7708 51.3246 45.1991 52.9294 45.8587C54.6401 46.5615 56.2731 47.4648 57.19 48.2179C58.1721 49.0277 58.3825 49.707 58.4576 50.2645ZM46.6211 101.412C47.5157 101.33 48.1434 101.262 48.6135 101.21C49.1525 101.152 49.4762 101.117 49.7716 101.107C50.4115 101.084 50.8139 101.192 51.1179 101.469C51.4366 101.759 51.6397 102.238 51.7554 102.976C51.8686 103.695 51.8957 104.666 51.9104 106.32C51.9264 108.02 51.9264 110.478 51.9264 113.081C51.9264 115.689 51.9264 118.385 51.8206 120.394C51.716 122.388 51.508 123.706 51.124 124.801C50.7622 125.832 50.2244 126.715 49.5254 127.421C48.8719 128.082 48.0978 128.572 47.0862 128.963C46.114 129.341 44.9203 129.632 43.2158 129.912C41.5483 130.184 39.4401 130.436 35.3359 130.436C31.2316 130.436 29.1235 130.184 27.4559 129.912C25.7515 129.632 24.5577 129.341 23.5855 128.963C22.5739 128.572 21.7998 128.082 21.1463 127.421C20.4473 126.715 19.9095 125.832 19.5477 124.801C19.1637 123.706 18.9557 122.388 18.8511 120.394C18.7453 118.385 18.7453 115.689 18.7453 113.081C18.7453 110.478 18.7453 108.02 18.7613 106.32C18.7761 104.666 18.8031 103.695 18.9164 102.976C19.032 102.238 19.2351 101.759 19.5538 101.469C19.8578 101.192 20.2602 101.084 20.9014 101.107C21.1955 101.117 21.5204 101.152 22.0607 101.21C22.5308 101.262 23.1572 101.33 24.0507 101.412C26.1256 101.603 29.2835 101.822 35.3359 101.822C41.3883 101.822 44.5462 101.603 46.6211 101.412ZM12.7541 94.2097C12.6862 95.0066 12.6161 95.8112 12.5378 96.647C12.2708 99.496 11.9422 102.569 11.5631 105.78C11.2432 108.479 11.0352 110.003 10.8703 110.876C10.7484 111.528 10.6549 111.768 10.6057 111.856C10.5626 111.778 10.4839 111.572 10.4002 111.038C10.3005 110.402 10.2082 109.397 9.97682 105.669C9.76215 102.205 9.48055 97.2287 9.25711 91.8955L9.24042 91.5055C9.20212 90.5767 9.16527 89.6411 9.13135 88.6981C8.89875 82.2224 8.77077 75.1965 8.77077 68.8648C8.77077 68.7417 8.77077 68.6186 8.77077 68.4956C8.77438 63.5622 8.85484 59.4301 8.94629 56.2928L8.95668 55.9302C8.98729 54.9153 9.01882 54.0067 9.0489 53.223C9.07597 52.4994 9.10428 51.8275 9.13381 51.1949C9.68284 53.4131 10.1339 55.2776 10.5109 56.8697L10.6125 57.3001C11.4253 60.7492 11.8712 62.8458 12.1797 64.3618C12.7507 67.18 12.9686 68.6531 13.1335 70.1164C13.3451 71.987 13.4473 73.7037 13.4842 76.0395C13.5297 78.9242 13.4682 82.519 13.3131 85.8922C13.2001 88.3643 13.0259 90.9903 12.7859 93.8517L12.7541 94.2097ZM8.93814 130.138C10.3792 131.814 12.2339 133.465 13.8977 134.554C14.8678 135.188 15.8044 135.65 17.0441 136.075C17.1583 136.571 17.282 137.051 17.4223 137.511C17.5881 138.057 17.7754 138.559 17.9707 139.038C14.9212 138.179 12.8657 136.693 11.4142 135.477C9.7063 134.047 8.13198 132.419 6.15492 126.986C6.11269 126.667 6.07223 126.334 6.03624 125.966C5.98078 125.401 5.9354 124.774 5.89448 124.123C6.85878 127.32 7.68801 128.685 8.93814 130.138ZM59.2575 135.477C57.806 136.693 55.7504 138.179 52.701 139.038C52.8964 138.559 53.0836 138.057 53.2494 137.511C53.3898 137.051 53.5135 136.571 53.6276 136.075C54.8673 135.65 55.804 135.188 56.774 134.554C58.4379 133.465 60.2925 131.814 61.7336 130.138C62.9838 128.685 63.813 127.32 64.7773 124.123C64.7364 124.774 64.691 125.402 64.6355 125.968C64.5995 126.334 64.5591 126.667 64.517 126.986C62.5398 132.419 60.9655 134.047 59.2575 135.477ZM61.7254 56.2928C61.8169 59.4301 61.8974 63.5622 61.901 68.4956V68.8648C61.901 75.1953 61.773 82.2236 61.5404 88.6981C61.5065 89.6411 61.4696 90.5767 61.4313 91.5055L61.4146 91.8955C61.1912 97.2287 60.9096 102.205 60.6949 105.669C60.4636 109.397 60.3713 110.402 60.2716 111.038C60.1867 111.582 60.1054 111.785 60.0673 111.858C60.0193 111.773 59.9245 111.534 59.8015 110.876C59.6366 110.003 59.4286 108.479 59.1086 105.78C58.7295 102.569 58.401 99.496 58.1339 96.647C58.0556 95.8112 57.9855 95.0066 57.9176 94.2097L57.8858 93.8517C57.6458 90.9903 57.4717 88.3643 57.3586 85.8922C57.2035 82.519 57.142 78.9242 57.1875 76.0395C57.2244 73.7037 57.3266 71.987 57.5383 70.1164C57.7032 68.6531 57.921 67.18 58.492 64.3618C58.8005 62.8458 59.2463 60.7492 60.0591 57.3001L60.1608 56.8697C60.5379 55.2776 60.9889 53.4131 61.5379 51.1949C61.5675 51.8275 61.5958 52.4994 61.6228 53.223C61.6529 54.0067 61.6845 54.9153 61.7151 55.9302L61.7254 56.2928ZM59.5775 13.08C58.7788 12.1484 58.1167 11.4137 57.5333 10.7639C57.2515 10.4513 56.9894 10.1597 56.7383 9.87538C56.0467 9.09267 55.3538 8.27921 54.4948 6.92917C54.3152 6.64735 54.1269 6.34214 53.93 6.01971C53.7199 5.67797 53.4888 5.30723 53.2467 4.92688C57.2459 7.41067 58.9525 9.04237 60.2014 10.6827C61.4188 12.2821 62.2884 14.0089 62.8093 17.3562C61.429 15.2994 60.4529 14.1004 59.5775 13.08Z" fill="white" fill-opacity="0.26"/>
</svg>