<svg width="79" height="55" viewBox="0 0 79 55" fill="none" xmlns="http://www.w3.org/2000/svg">
<rect x="74.1473" y="16.5551" width="69.144" height="8.79463" transform="rotate(180 74.1473 16.5551)" fill="white"/>
<rect x="42.5408" y="12.1695" width="15.4664" height="5.762" transform="rotate(90 42.5408 12.1695)" fill="white"/>
<path d="M78.999 1.80835V21.8237C75.1173 25.4629 71.4174 23.34 70.0528 21.8237V1.80835C73.328 -1.46689 77.3816 0.443665 78.999 1.80835Z" fill="white"/>
<path d="M8.94629 1.80835V21.8237C5.06452 25.4629 1.36472 23.34 3.24249e-05 21.8237V1.80835C3.27527 -1.46689 7.32889 0.443665 8.94629 1.80835Z" fill="white"/>
<path d="M46.423 5.94071L50.1893 9.75316V14.2588L46.423 18.0712H32.7273L28.9609 14.2588V9.75316L32.7273 5.94071H46.423Z" fill="white"/>
<path d="M34 29.5L35.1785 24L43.9785 24L45 29.5L45 49.5L41.5429 55H37.4571L34 49.5L34 29.5Z" fill="white"/>
</svg>
