<svg width="79" height="53" viewBox="0 0 79 53" fill="none" xmlns="http://www.w3.org/2000/svg">
<rect x="4.85175" y="35.9044" width="69.144" height="8.79463" fill="white"/>
<rect x="36.4582" y="40.29" width="15.4664" height="5.762" transform="rotate(-90 36.4582 40.29)" fill="white"/>
<path d="M0 50.6511L0 30.6357C3.88177 26.9966 7.58157 29.1194 8.94626 30.6357L8.94626 50.6511C5.67102 53.9263 1.6174 52.0158 0 50.6511Z" fill="white"/>
<path d="M70.0527 50.6511V30.6357C73.9345 26.9966 77.6343 29.1194 78.999 30.6357V50.6511C75.7238 53.9263 71.6701 52.0158 70.0527 50.6511Z" fill="white"/>
<path d="M32.576 46.5188L28.8097 42.7063V38.2007L32.576 34.3882H46.2718L50.0381 38.2007V42.7063L46.2718 46.5188H32.576Z" fill="white"/>
<path d="M45 25.5L43.8215 31L35.0215 31L34 25.5L34 5.5L37.4571 -1.51117e-07L41.5429 -3.29709e-07L45 5.5L45 25.5Z" fill="white"/>
</svg>
